<?xml version="1.0" encoding="utf-8"?>
<!-- Generator: Adobe Illustrator 28.1.0, SVG Export Plug-In . SVG Version: 6.00 Build 0)  -->
<svg version="1.2" baseProfile="tiny" id="Layer_1" xmlns="http://www.w3.org/2000/svg" xmlns:xlink="http://www.w3.org/1999/xlink"
	 x="0px" y="0px" viewBox="0 0 60 61" overflow="visible" xml:space="preserve">
<g>
	<rect x="16.52" y="14.8" width="28.46" height="26.64"/>
	<path fill="#77FB8C" d="M59.46,29.18L31.3,0.54c-0.21-0.22-0.47-0.36-0.73-0.45c-0.39-0.13-0.82-0.12-1.2,0.03
		c-0.02,0-0.03,0-0.05,0.02c-0.21,0.09-0.42,0.23-0.6,0.41L0.54,29.18c-0.72,0.73-0.72,1.9,0,2.63L28.7,60.45
		c0.72,0.73,1.87,0.73,2.59,0l28.17-28.64C60.18,31.08,60.18,29.91,59.46,29.18z M34,18.81c-0.08-0.45,0.1-0.89,0.48-1.15
		c0.09-0.07,0.2-0.11,0.3-0.15c0.03,0,0.06,0,0.08-0.01c0.07-0.02,0.16-0.04,0.23-0.04c0.07,0,0.12,0.02,0.18,0.03
		c0.05,0,0.09,0,0.13,0.02c0.1,0.03,0.21,0.08,0.3,0.14l9.27,8.75l-9.27,8.75c-0.09,0.07-0.2,0.11-0.3,0.14
		c-0.02,0-0.04,0-0.07,0.01c-0.08,0.02-0.17,0.04-0.25,0.04c-0.06,0-0.11-0.02-0.16-0.03c-0.06,0-0.1,0-0.16-0.03
		c-0.1-0.04-0.2-0.09-0.3-0.15c-0.38-0.26-0.56-0.69-0.48-1.16l0.9-5.07l-9.64-0.04l-0.07,11.86h-4.83L20.3,27.47
		c0-1.96,1.56-3.56,3.48-3.57l11.11-0.04l-0.9-5.07L34,18.81z"/>
</g>
</svg>
