<?xml version="1.0" encoding="utf-8"?>
<!-- Generator: Adobe Illustrator 28.1.0, SVG Export Plug-In . SVG Version: 6.00 Build 0)  -->
<svg version="1.2" baseProfile="tiny" id="Markers" xmlns="http://www.w3.org/2000/svg" xmlns:xlink="http://www.w3.org/1999/xlink"
	 x="0px" y="0px" viewBox="0 0 1920 1080" overflow="visible" xml:space="preserve">
<g id="metabolic">
	<circle fill="#77FB8C" stroke="#000000" stroke-width="2" stroke-miterlimit="10" cx="1365.21" cy="747.47" r="19.76"/>
	<path id="asterisk-lake" d="M1372.42,743.39l1.23,3.71l-6.5,1.17l4.45,4.84l-3.13,2.34l-3.23-5.92l-3.22,5.92l-3.18-2.34l4.45-4.84
		l-6.5-1.17l1.23-3.71l6.06,2.79l-0.78-6.7h3.86l-0.78,6.7l6.06-2.79l0,0H1372.42z"/>
</g>
<g id="folar">
	<circle fill="#77FB8C" stroke="#000000" stroke-width="2" stroke-miterlimit="10" cx="1373.79" cy="589" r="19.76"/>
	<path id="asterisk-lake-2" d="M1381,584.92l1.23,3.71l-6.5,1.17l4.45,4.84l-3.13,2.34l-3.23-5.92l-3.22,5.92l-3.18-2.34l4.45-4.84
		l-6.5-1.17l1.23-3.71l6.06,2.79l-0.78-6.7h3.86l-0.78,6.7l6.06-2.79l0,0H1381z"/>
</g>
<g id="ridl">
	<circle fill="#77FB8C" stroke="#000000" stroke-width="2" stroke-miterlimit="10" cx="1257.4" cy="511.72" r="19.76"/>
	<path id="asterisk-lake-3" d="M1264.6,507.65l1.23,3.71l-6.5,1.17l4.45,4.84l-3.13,2.34l-3.23-5.92l-3.22,5.92l-3.18-2.34
		l4.45-4.84l-6.5-1.17l1.23-3.71l6.06,2.79l-0.78-6.7h3.86l-0.78,6.7l6.06-2.79l0,0L1264.6,507.65z"/>
</g>
<g id="bowtie">
	<circle fill="#77FB8C" stroke="#000000" stroke-width="2" stroke-miterlimit="10" cx="1170.91" cy="323.8" r="19.76"/>
	<path id="asterisk-lake-4" d="M1178.12,319.73l1.23,3.71l-6.5,1.17l4.45,4.84l-3.13,2.34l-3.23-5.92l-3.22,5.92l-3.18-2.34
		l4.45-4.84l-6.5-1.17l1.23-3.71l6.06,2.79l-0.78-6.7h3.86l-0.78,6.7l6.06-2.79l0,0H1178.12z"/>
</g>
</svg>
